<svg xmlns="http://www.w3.org/2000/svg" width="130.726" height="130.725" viewBox="0 0 34.588 34.588"><g transform="translate(-97.699 -63.28)"><circle cx="114.993" cy="80.573" r="16.794" style="fill:#474747;fill-opacity:1;stroke:#000;stroke-width:1;stroke-linecap:round;stroke-linejoin:bevel;stroke-dasharray:none;stroke-opacity:1"/><path d="m102.454 91.417 1.888 2.314 3.89 2.172 5.019 1.428 4.916-.122 4.469-1.65 3.995-2.865 2.327-2.57.431-.91z" style="fill:#fff;fill-opacity:1;stroke:none;stroke-width:.264583px;stroke-linecap:butt;stroke-linejoin:miter;stroke-opacity:1"/><path d="M156.794 79.97c1.251-2.443-1.483-7.13-3.398-6.19.392 1.191 1.133 2.497-1.111 3.543-4.342 1.037-11.447-.304-11.09-5.747.414-2.668 3.148-4.471 3.791-6.645.004-3.054-2.137-7.092-5.271-6.813-9.131.482-4.314 13.265-6.195 19.049-1.3 2.096-2.432 2.598-3.574 4.614" style="fill:#fff;fill-opacity:1;stroke:#000;stroke-width:1.065;stroke-linecap:round;stroke-linejoin:round;stroke-dasharray:none;stroke-opacity:1" transform="translate(-27.701 9.664)"/><rect width="1.093" height="1.195" x="93.033" y="114.15" ry=".238" style="fill:#fbf863;fill-opacity:1;stroke:#000;stroke-width:.626;stroke-linecap:round;stroke-linejoin:bevel;stroke-dasharray:none;stroke-opacity:1" transform="rotate(-17.417)"/><rect width="1.213" height="2.428" x="95.101" y="113.741" ry=".299" style="fill:#fbf863;fill-opacity:1;stroke:#000;stroke-width:.626;stroke-linecap:round;stroke-linejoin:bevel;stroke-dasharray:none;stroke-opacity:1" transform="rotate(-17.417)"/><rect width="12.83" height="1.544" x="84.561" y="112.732" ry=".215" style="fill:#fbf863;fill-opacity:1;stroke:#000;stroke-width:.626;stroke-linecap:round;stroke-linejoin:bevel;stroke-dasharray:none;stroke-opacity:1" transform="rotate(-17.417)"/><circle cx="112.941" cy="83.586" r="2.146" style="fill:#fbf863;fill-opacity:1;stroke:#000;stroke-width:.626;stroke-linecap:round;stroke-linejoin:bevel;stroke-dasharray:none;stroke-opacity:1"/><circle cx="112.881" cy="83.575" r="1.017" style="fill:#fbfbfb;fill-opacity:1;stroke:#000;stroke-width:.626;stroke-linecap:round;stroke-linejoin:bevel;stroke-dasharray:none;stroke-opacity:1"/><path d="M117.11 73.179s.474 1.583.72 2.328c.252.763.719 1.457 1.244 2.065.658.762 1.691 1.143 2.334 1.919.315.38.628.815.712 1.302.07.412.075.923-.2 1.236-3.723 2.089-6.282-2.293-8.02-4.587l1.002-.325-.517-3.439 2.298 1.477z" style="fill:#f48527;fill-opacity:1;stroke:#000;stroke-width:.965;stroke-linecap:round;stroke-linejoin:round;stroke-dasharray:none;stroke-opacity:1"/><circle cx="111.593" cy="72.587" r=".945" style="fill:#000;fill-opacity:1;stroke:none;stroke-width:.765;stroke-linecap:round;stroke-linejoin:round;stroke-dasharray:none;stroke-opacity:1"/><circle cx="114.993" cy="80.573" r="16.794" style="fill:none;fill-opacity:1;stroke:#000;stroke-width:1;stroke-linecap:round;stroke-linejoin:bevel;stroke-dasharray:none;stroke-opacity:1"/></g></svg>